<svg id="Capa_1" data-name="Capa 1" xmlns="http://www.w3.org/2000/svg" viewBox="0 0 300 300"><defs><style>.cls-1{fill:#fff;}.cls-2,.cls-3{fill:#92bb57;}.cls-3{font-size:33.19px;font-family:GreatVibes-Regular, Great Vibes;}.cls-4{font-size:18.86px;font-family:SegoePrint, Segoe Print;}.cls-5{letter-spacing:-0.02em;}</style></defs><rect class="cls-1" width="300" height="300"/><rect x="140.85" y="68.05" width="12.42" height="15.59" rx="0.45"/><rect x="159.72" y="68.05" width="17.52" height="4.99" rx="0.42"/><rect x="134.82" y="89.81" width="24.49" height="5.88" rx="0.67"/><path d="M162.75,102.13h-31a9,9,0,0,0-9,9v49.49a.16.16,0,0,0,.16.16h48.65a.16.16,0,0,0,.16-.16V111.12A9,9,0,0,0,162.75,102.13Z"/><path class="cls-1" d="M141.6,113.12s36.28,0,38.41,38.06C178.79,151.18,141.6,150.78,141.6,113.12Z"/><path class="cls-2" d="M171.49,143.09s-1.93-19.2-23.56-24C147.93,119.74,148.85,138.56,171.49,143.09Z"/><path d="M178.67,143.09s1.93-19.2,23.56-24C202.23,119.74,201.31,138.56,178.67,143.09Z"/><text class="cls-3" transform="translate(36.22 196.36)">Tu almacen de higiene</text><text class="cls-4" transform="translate(108.63 225.91)"><tspan class="cls-5">C</tspan><tspan x="12.82" y="0">aballito</tspan></text></svg>